<?xml version="1.0" encoding="UTF-8"?>
<!DOCTYPE svg PUBLIC "-//W3C//DTD SVG 1.1//EN" "http://www.w3.org/Graphics/SVG/1.1/DTD/svg11.dtd">
<svg xmlns="http://www.w3.org/2000/svg" version="1.1" width="170px" height="44px" style="shape-rendering:geometricPrecision; text-rendering:geometricPrecision; image-rendering:optimizeQuality; fill-rule:evenodd; clip-rule:evenodd" xmlns:xlink="http://www.w3.org/1999/xlink">
<g><path style="opacity:1" fill="#f6f8fe" d="M -0.5,-0.5 C 4.83333,-0.5 10.1667,-0.5 15.5,-0.5C 8.5,3.16667 3.16667,8.5 -0.5,15.5C -0.5,10.1667 -0.5,4.83333 -0.5,-0.5 Z"/></g>
<g><path style="opacity:1" fill="#1d60ef" d="M 15.5,-0.5 C 19.1667,-0.5 22.8333,-0.5 26.5,-0.5C 42.4032,6.30633 46.9032,17.6397 40,33.5C 36.4205,38.2693 31.9205,41.6026 26.5,43.5C 22.8333,43.5 19.1667,43.5 15.5,43.5C 8.08339,39.7513 2.75005,34.0847 -0.5,26.5C -0.5,22.8333 -0.5,19.1667 -0.5,15.5C 3.16667,8.5 8.5,3.16667 15.5,-0.5 Z"/></g>
<g><path style="opacity:1" fill="#fbfbfc" d="M 26.5,-0.5 C 74.1667,-0.5 121.833,-0.5 169.5,-0.5C 169.5,14.1667 169.5,28.8333 169.5,43.5C 121.833,43.5 74.1667,43.5 26.5,43.5C 31.9205,41.6026 36.4205,38.2693 40,33.5C 46.9032,17.6397 42.4032,6.30633 26.5,-0.5 Z"/></g>
<g><path style="opacity:1" fill="#f5f7fe" d="M 25.5,8.5 C 26.5,8.5 27.5,8.5 28.5,8.5C 27.2934,12.7862 26.2934,17.1195 25.5,21.5C 27.5,21.5 29.5,21.5 31.5,21.5C 31.719,22.675 31.3857,23.675 30.5,24.5C 25.4023,28.3731 20.069,31.7064 14.5,34.5C 15.0164,31.1012 15.8497,27.7679 17,24.5C 18.1711,23.1068 19.6711,22.2735 21.5,22C 18.1832,21.5017 14.8499,21.335 11.5,21.5C 11.281,20.325 11.6143,19.325 12.5,18.5C 17.0824,15.3887 21.4157,12.0554 25.5,8.5 Z"/></g>
<g><path style="opacity:1" fill="#1a2131" d="M 55.5,10.5 C 60.6278,10.1115 65.6278,10.6115 70.5,12C 72.1903,15.5254 71.5236,18.5254 68.5,21C 73.7007,24.2402 73.7007,27.5735 68.5,31C 63.8452,31.4992 59.1785,31.6658 54.5,31.5C 54.5,30.1667 54.5,28.8333 54.5,27.5C 55.5,27.5 56.5,27.5 57.5,27.5C 57.8548,21.6591 57.1881,15.9925 55.5,10.5 Z"/></g>
<g><path style="opacity:1" fill="#222838" d="M 90.5,10.5 C 91.8333,10.5 93.1667,10.5 94.5,10.5C 94.5,17.5 94.5,24.5 94.5,31.5C 93.1667,31.5 91.8333,31.5 90.5,31.5C 90.5,24.5 90.5,17.5 90.5,10.5 Z"/></g>
<g><path style="opacity:1" fill="#1f2636" d="M 123.5,10.5 C 124.833,10.5 126.167,10.5 127.5,10.5C 127.336,13.1873 127.503,15.854 128,18.5C 131,15.8333 134,15.8333 137,18.5C 138.367,22.6996 138.867,27.0329 138.5,31.5C 137.167,31.5 135.833,31.5 134.5,31.5C 134.665,27.8183 134.499,24.1516 134,20.5C 131.733,19.0652 129.733,19.3985 128,21.5C 127.502,24.8168 127.335,28.1501 127.5,31.5C 126.167,31.5 124.833,31.5 123.5,31.5C 123.5,24.5 123.5,17.5 123.5,10.5 Z"/></g>
<g><path style="opacity:1" fill="#1a2130" d="M 140.5,10.5 C 141.833,10.5 143.167,10.5 144.5,10.5C 144.5,11.8333 144.5,13.1667 144.5,14.5C 143.167,14.5 141.833,14.5 140.5,14.5C 140.5,13.1667 140.5,11.8333 140.5,10.5 Z"/></g>
<g><path style="opacity:1" fill="#192030" d="M 160.5,16.5 C 161.434,15.4324 161.768,14.099 161.5,12.5C 162.5,12.5 163.5,12.5 164.5,12.5C 164.5,13.8333 164.5,15.1667 164.5,16.5C 165.833,16.5 167.167,16.5 168.5,16.5C 168.5,17.5 168.5,18.5 168.5,19.5C 167.167,19.5 165.833,19.5 164.5,19.5C 164.5,22.5 164.5,25.5 164.5,28.5C 165.833,28.5 167.167,28.5 168.5,28.5C 168.5,29.5 168.5,30.5 168.5,31.5C 165.635,31.9452 163.135,31.2785 161,29.5C 160.502,26.1832 160.335,22.8499 160.5,19.5C 158.167,19.5 155.833,19.5 153.5,19.5C 153.5,23.5 153.5,27.5 153.5,31.5C 152.167,31.5 150.833,31.5 149.5,31.5C 149.5,27.5 149.5,23.5 149.5,19.5C 148.167,19.5 146.833,19.5 145.5,19.5C 145.5,18.5 145.5,17.5 145.5,16.5C 146.833,16.5 148.167,16.5 149.5,16.5C 149.327,11.6766 151.661,9.6766 156.5,10.5C 156.5,11.5 156.5,12.5 156.5,13.5C 155.5,13.5 154.5,13.5 153.5,13.5C 153.5,14.5 153.5,15.5 153.5,16.5C 155.833,16.5 158.167,16.5 160.5,16.5 Z"/></g>
<g><path style="opacity:1" fill="#1c2332" d="M 99.5,11.5 C 100.833,11.5 102.167,11.5 103.5,11.5C 103.5,13.1667 103.5,14.8333 103.5,16.5C 104.833,16.5 106.167,16.5 107.5,16.5C 107.5,17.5 107.5,18.5 107.5,19.5C 106.167,19.5 104.833,19.5 103.5,19.5C 103.5,22.5 103.5,25.5 103.5,28.5C 104.833,28.5 106.167,28.5 107.5,28.5C 107.5,29.5 107.5,30.5 107.5,31.5C 104.635,31.9452 102.135,31.2785 100,29.5C 99.5017,26.1832 99.335,22.8499 99.5,19.5C 98.5,19.5 97.5,19.5 96.5,19.5C 96.5,18.5 96.5,17.5 96.5,16.5C 97.5,16.5 98.5,16.5 99.5,16.5C 99.5,14.8333 99.5,13.1667 99.5,11.5 Z"/></g>
<g><path style="opacity:1" fill="#71757f" d="M 164.5,12.5 C 163.5,12.5 162.5,12.5 161.5,12.5C 161.768,14.099 161.434,15.4324 160.5,16.5C 160.5,14.8333 160.5,13.1667 160.5,11.5C 162.099,11.2322 163.432,11.5655 164.5,12.5 Z"/></g>
<g><path style="opacity:1" fill="#aeb1b6" d="M 66.5,14.5 C 65.1667,14.5 63.8333,14.5 62.5,14.5C 62.5,15.8333 62.5,17.1667 62.5,18.5C 63.8333,18.5 65.1667,18.5 66.5,18.5C 65.0813,19.4511 63.4147,19.7845 61.5,19.5C 61.5,17.5 61.5,15.5 61.5,13.5C 63.4147,13.2155 65.0813,13.5489 66.5,14.5 Z"/></g>
<g><path style="opacity:1" fill="#f4f5f5" d="M 66.5,14.5 C 69.1667,15.8333 69.1667,17.1667 66.5,18.5C 65.1667,18.5 63.8333,18.5 62.5,18.5C 62.5,17.1667 62.5,15.8333 62.5,14.5C 63.8333,14.5 65.1667,14.5 66.5,14.5 Z"/></g>
<g><path style="opacity:1" fill="#18202f" d="M 77.5,16.5 C 84.6146,14.6289 88.2813,17.2956 88.5,24.5C 88.4726,29.3583 85.9726,31.6917 81,31.5C 74.4353,30.7287 72.102,27.0621 74,20.5C 74.6897,18.6498 75.8564,17.3164 77.5,16.5 Z"/></g>
<g><path style="opacity:1" fill="#1e2534" d="M 111.5,16.5 C 114.93,16.1065 118.096,16.7732 121,18.5C 121.432,19.6001 120.932,20.2668 119.5,20.5C 117.547,19.8444 115.547,19.5111 113.5,19.5C 113.5,20.5 113.5,21.5 113.5,22.5C 121.061,21.8596 123.061,24.693 119.5,31C 116.833,31.6667 114.167,31.6667 111.5,31C 109.963,29.8904 109.297,28.3904 109.5,26.5C 111.747,26.9153 113.914,27.5819 116,28.5C 116.833,28.1667 117.667,27.8333 118.5,27.5C 115.496,26.2454 112.663,24.5787 110,22.5C 109.252,20.1599 109.752,18.1599 111.5,16.5 Z"/></g>
<g><path style="opacity:1" fill="#494f5b" d="M 141.5,16.5 C 141.5,21.1667 141.5,25.8333 141.5,30.5C 142.5,30.5 143.5,30.5 144.5,30.5C 143.432,31.4345 142.099,31.7678 140.5,31.5C 140.179,26.3054 140.513,21.3054 141.5,16.5 Z"/></g>
<g><path style="opacity:1" fill="#101828" d="M 141.5,16.5 C 142.5,16.5 143.5,16.5 144.5,16.5C 144.5,21.1667 144.5,25.8333 144.5,30.5C 143.5,30.5 142.5,30.5 141.5,30.5C 141.5,25.8333 141.5,21.1667 141.5,16.5 Z"/></g>
<g><path style="opacity:1" fill="#eaebec" d="M 78.5,19.5 C 85.4863,19.331 87.153,22.1643 83.5,28C 81.765,28.6514 80.0983,28.4847 78.5,27.5C 77.2706,24.8013 77.2706,22.1346 78.5,19.5 Z"/></g>
<g><path style="opacity:1" fill="#ebebed" d="M 61.5,22.5 C 63.5273,22.3379 65.5273,22.5045 67.5,23C 68.8333,24.3333 68.8333,25.6667 67.5,27C 65.5273,27.4955 63.5273,27.6621 61.5,27.5C 61.5,25.8333 61.5,24.1667 61.5,22.5 Z"/></g>
<g><path style="opacity:1" fill="#f6f8fe" d="M -0.5,26.5 C 2.75005,34.0847 8.08339,39.7513 15.5,43.5C 10.1667,43.5 4.83333,43.5 -0.5,43.5C -0.5,37.8333 -0.5,32.1667 -0.5,26.5 Z"/></g>
</svg>
