<?xml version="1.0" encoding="UTF-8"?>
<!DOCTYPE svg PUBLIC "-//W3C//DTD SVG 1.1//EN" "http://www.w3.org/Graphics/SVG/1.1/DTD/svg11.dtd">
<svg xmlns="http://www.w3.org/2000/svg" version="1.1" width="202px" height="63px" style="shape-rendering:geometricPrecision; text-rendering:geometricPrecision; image-rendering:optimizeQuality; fill-rule:evenodd; clip-rule:evenodd" xmlns:xlink="http://www.w3.org/1999/xlink">
<g><path style="opacity:1" fill="#fdfdfd" d="M -0.5,-0.5 C 66.8333,-0.5 134.167,-0.5 201.5,-0.5C 201.5,20.5 201.5,41.5 201.5,62.5C 134.167,62.5 66.8333,62.5 -0.5,62.5C -0.5,41.5 -0.5,20.5 -0.5,-0.5 Z"/></g>
<g><path style="opacity:1" fill="#161d2d" d="M 36.5,10.5 C 43.5791,13.0653 50.0791,16.732 56,21.5C 56.6667,28.1667 56.6667,34.8333 56,41.5C 50.1505,45.4242 44.1505,49.0909 38,52.5C 31.3555,49.3453 25.0222,45.6786 19,41.5C 18.3333,34.8333 18.3333,28.1667 19,21.5C 24.8134,17.6835 30.6467,14.0168 36.5,10.5 Z"/></g>
<g><path style="opacity:1" fill="#f3f4f4" d="M 36.5,14.5 C 41.2717,16.7204 45.9384,19.2204 50.5,22C 45.9663,24.9337 41.2996,27.267 36.5,29C 32.5,26.6667 28.5,24.3333 24.5,22C 28.7324,19.7254 32.7324,17.2254 36.5,14.5 Z"/></g>
<g><path style="opacity:1" fill="#232938" d="M 82.5,19.5 C 85.9103,19.3838 87.2436,21.0504 86.5,24.5C 82.065,25.0776 80.7317,23.4109 82.5,19.5 Z"/></g>
<g><path style="opacity:1" fill="#1c2433" d="M 107.5,21.5 C 109.167,21.5 110.833,21.5 112.5,21.5C 112.201,23.604 112.534,25.604 113.5,27.5C 116.533,26.0727 119.366,26.406 122,28.5C 122.499,32.8206 122.666,37.1539 122.5,41.5C 121.167,41.5 119.833,41.5 118.5,41.5C 118.665,38.1501 118.498,34.8168 118,31.5C 116.301,30.5939 114.467,30.2606 112.5,30.5C 112.5,34.1667 112.5,37.8333 112.5,41.5C 110.833,41.5 109.167,41.5 107.5,41.5C 107.5,34.8333 107.5,28.1667 107.5,21.5 Z"/></g>
<g><path style="opacity:1" fill="#171e2e" d="M 136.5,21.5 C 137.833,21.5 139.167,21.5 140.5,21.5C 140.337,23.8568 140.503,26.1902 141,28.5C 145.295,25.4939 148.961,26.1605 152,30.5C 153.202,34.7929 152.035,38.2929 148.5,41C 144.399,40.6504 140.399,40.8171 136.5,41.5C 136.5,34.8333 136.5,28.1667 136.5,21.5 Z"/></g>
<g><path style="opacity:1" fill="#121a2a" d="M 73.5,22.5 C 73.5,27.8333 73.5,33.1667 73.5,38.5C 75.5,38.5 77.5,38.5 79.5,38.5C 79.5,39.5 79.5,40.5 79.5,41.5C 76.1667,41.5 72.8333,41.5 69.5,41.5C 69.5,35.1667 69.5,28.8333 69.5,22.5C 70.8333,22.5 72.1667,22.5 73.5,22.5 Z"/></g>
<g><path style="opacity:1" fill="#82868e" d="M 73.5,22.5 C 74.4872,27.3054 74.8205,32.3054 74.5,37.5C 76.5,37.5 78.5,37.5 80.5,37.5C 80.7678,39.099 80.4345,40.4324 79.5,41.5C 79.5,40.5 79.5,39.5 79.5,38.5C 77.5,38.5 75.5,38.5 73.5,38.5C 73.5,33.1667 73.5,27.8333 73.5,22.5 Z"/></g>
<g><path style="opacity:1" fill="#171e2e" d="M 133.5,26.5 C 133.5,27.5 133.5,28.5 133.5,29.5C 132.5,29.5 131.5,29.5 130.5,29.5C 130.194,32.3854 130.527,35.0521 131.5,37.5C 132.5,37.5 133.5,37.5 134.5,37.5C 134.5,38.8333 134.5,40.1667 134.5,41.5C 131.305,42.0393 128.805,41.0393 127,38.5C 126.792,35.002 125.959,31.6687 124.5,28.5C 125.754,26.6663 126.421,24.6663 126.5,22.5C 127.833,22.5 129.167,22.5 130.5,22.5C 130.5,23.8333 130.5,25.1667 130.5,26.5C 131.5,26.5 132.5,26.5 133.5,26.5 Z"/></g>
<g><path style="opacity:1" fill="#fafafb" d="M 35.5,32.5 C 35.8195,37.3633 35.4861,42.03 34.5,46.5C 30.8503,44.5283 27.1836,42.5283 23.5,40.5C 22.3377,35.533 22.1711,30.533 23,25.5C 27.2747,27.7187 31.4414,30.052 35.5,32.5 Z"/></g>
<g><path style="opacity:1" fill="#111929" d="M 82.5,26.5 C 83.8333,26.5 85.1667,26.5 86.5,26.5C 86.5,31.5 86.5,36.5 86.5,41.5C 85.1667,41.5 83.8333,41.5 82.5,41.5C 82.5,36.5 82.5,31.5 82.5,26.5 Z"/></g>
<g><path style="opacity:1" fill="#192030" d="M 92.5,26.5 C 96.6007,27.3659 100.601,27.3659 104.5,26.5C 104.92,33.2837 104.42,39.9504 103,46.5C 99.7441,48.4285 96.2441,48.9285 92.5,48C 91.3128,46.9805 90.3128,45.8139 89.5,44.5C 92.7697,43.8081 96.103,43.8081 99.5,44.5C 99.762,43.0222 99.4287,41.6888 98.5,40.5C 90.9123,41.7426 87.7456,38.4093 89,30.5C 90.0319,28.9733 91.1986,27.64 92.5,26.5 Z"/></g>
<g><path style="opacity:1" fill="#1c2333" d="M 157.5,26.5 C 164.253,24.7717 168.253,27.2717 169.5,34C 168.008,40.418 164.008,42.7514 157.5,41C 152.214,36.1687 152.214,31.3354 157.5,26.5 Z"/></g>
<g><path style="opacity:1" fill="#1b2231" d="M 170.5,27.5 C 173.947,25.7068 176.447,26.7068 178,30.5C 179.066,27.0084 181.233,26.0084 184.5,27.5C 183.035,29.5994 181.701,31.7661 180.5,34C 182.016,36.0242 183.349,38.1909 184.5,40.5C 182.833,41.8333 181.167,41.8333 179.5,40.5C 178.167,36.5 176.833,36.5 175.5,40.5C 173.833,41.8333 172.167,41.8333 170.5,40.5C 171.965,38.4006 173.299,36.2339 174.5,34C 173.715,31.4058 172.382,29.2392 170.5,27.5 Z"/></g>
<g><path style="opacity:1" fill="#ebebed" d="M 94.5,30.5 C 100.016,30.4734 101.349,32.64 98.5,37C 93.5705,37.427 92.2372,35.2604 94.5,30.5 Z"/></g>
<g><path style="opacity:1" fill="#7d818a" d="M 133.5,26.5 C 134.434,27.5676 134.768,28.901 134.5,30.5C 133.5,30.5 132.5,30.5 131.5,30.5C 131.5,32.8333 131.5,35.1667 131.5,37.5C 130.527,35.0521 130.194,32.3854 130.5,29.5C 131.5,29.5 132.5,29.5 133.5,29.5C 133.5,28.5 133.5,27.5 133.5,26.5 Z"/></g>
<g><path style="opacity:1" fill="#e9eaec" d="M 141.5,30.5 C 147.158,29.6794 148.825,31.846 146.5,37C 141.279,37.6099 139.612,35.4432 141.5,30.5 Z"/></g>
<g><path style="opacity:1" fill="#f1f1f2" d="M 159.5,30.5 C 164.328,30.3852 165.661,32.5519 163.5,37C 158.57,37.427 157.237,35.2604 159.5,30.5 Z"/></g>
<g><path style="opacity:1" fill="#4b515d" d="M 35.5,32.5 C 36.8137,37.3477 36.8137,42.3477 35.5,47.5C 34.8933,47.3764 34.56,47.0431 34.5,46.5C 35.4861,42.03 35.8195,37.3633 35.5,32.5 Z"/></g>
</svg>
